<svg width="26" height="25" viewBox="0 0 26 25" fill="none" xmlns="http://www.w3.org/2000/svg">
<path d="M10.2822 19.0424C10.1784 19.0424 10.0746 19.065 9.98433 19.1191C9.79024 19.241 9.69544 19.4577 9.69544 19.6969V24.0573C9.69544 24.3958 9.4201 24.6712 9.08156 24.6712H3.99892C3.66038 24.6622 3.42566 24.4274 3.46177 24.0708V12.8223C3.45726 12.6462 3.534 12.4792 3.6649 12.3618L12.2413 4.774C12.4715 4.57088 12.8236 4.57088 13.0538 4.774L21.6076 12.3483C21.7385 12.4657 21.8152 12.6327 21.8152 12.8087L21.8062 24.1295C21.8152 24.4049 21.6617 24.5719 21.427 24.6441C21.3729 24.6622 21.3187 24.6667 21.2645 24.6667H16.1999C15.8614 24.6667 15.5861 24.3913 15.5861 24.0528V19.6292C15.5861 19.4486 15.5048 19.2952 15.3874 19.1868C15.2791 19.0875 15.1347 19.0424 14.9902 19.0424H10.2822Z" fill="#948438"/>
<path d="M23.5892 12.3212L13.3156 3.22574C12.9319 2.8872 12.3541 2.8872 11.9704 3.22574L1.68782 12.3212C1.26803 12.6913 0.627055 12.6552 0.256917 12.2354C-0.117735 11.8157 -0.0771101 11.1747 0.342681 10.8L12.4128 0.120188C12.5527 -0.0377978 12.7288 -0.0423117 12.8687 0.120188L24.9388 10.8C25.3586 11.1702 25.3992 11.8111 25.0291 12.2309C24.659 12.6507 24.0135 12.6913 23.5937 12.3212H23.5892Z" fill="#948438"/>
<path d="M6.71628 2.10178L6.69371 3.36116C6.69371 3.47852 6.63955 3.59136 6.55378 3.6681L4.18399 5.81219C3.91316 6.06046 3.47531 5.86636 3.47531 5.49622V2.02053C3.47531 1.78581 3.66038 1.59623 3.89511 1.59623H6.29649C6.54927 1.59171 6.74788 1.80838 6.7208 2.06116C6.7208 2.06116 6.7208 2.06116 6.7208 2.06567C6.7208 2.07921 6.7208 2.08824 6.7208 2.10178H6.71628Z" fill="#948438"/>
</svg>
