<svg width="40" height="40" viewBox="0 0 40 40" fill="none" xmlns="http://www.w3.org/2000/svg">
<path d="M16.2719 30.8733C16.1076 30.8733 15.9433 30.909 15.8005 30.9947C15.4934 31.1875 15.3435 31.5303 15.3435 31.9088V38.8076C15.3435 39.3432 14.9078 39.7789 14.3722 39.7789H6.33076C5.79515 39.7646 5.42378 39.3932 5.48092 38.829V21.0322C5.47377 20.7537 5.59518 20.4894 5.80229 20.3038L19.3713 8.29874C19.7355 7.97737 20.2926 7.97737 20.6568 8.29874L34.1901 20.2823C34.3972 20.468 34.5186 20.7323 34.5186 21.0108L34.5043 38.9219C34.5186 39.3575 34.2758 39.6218 33.9044 39.736C33.8188 39.7646 33.7331 39.7717 33.6474 39.7717H25.6345C25.0989 39.7717 24.6632 39.3361 24.6632 38.8005V31.8017C24.6632 31.5161 24.5347 31.2732 24.349 31.1018C24.1776 30.9447 23.9491 30.8733 23.7205 30.8733H16.2719Z" fill="#6F632A"/>
<path d="M37.3253 20.2395L21.071 5.84917C20.464 5.31356 19.5499 5.31356 18.9428 5.84917L2.67427 20.2395C2.0101 20.8251 0.995996 20.768 0.410385 20.1038C-0.182367 19.4396 -0.118093 18.4255 0.546075 17.8328L19.6427 0.93576C19.8641 0.685804 20.1426 0.678662 20.364 0.93576L39.4606 17.8328C40.1248 18.4184 40.1891 19.4325 39.6034 20.0967C39.0178 20.7608 37.9966 20.8251 37.3324 20.2395H37.3253Z" fill="#6F632A"/>
<path d="M10.63 4.07092L10.5943 6.06342C10.5943 6.2491 10.5086 6.42764 10.3729 6.54905L6.62357 9.94131C6.19508 10.3341 5.50234 10.027 5.50234 9.4414V3.94237C5.50234 3.57101 5.79515 3.27106 6.16651 3.27106H9.96583C10.3658 3.26392 10.68 3.60672 10.6371 4.00664C10.6371 4.00664 10.6371 4.00664 10.6371 4.01379C10.6371 4.03521 10.6371 4.04949 10.6371 4.07092H10.63Z" fill="#6F632A"/>
</svg>
