<svg width="25" height="18" viewBox="0 0 25 18" fill="none" xmlns="http://www.w3.org/2000/svg">
<path d="M13.7339 9.54601C13.0389 10.1927 11.9919 10.1971 11.2968 9.56801L1.36811 0.602674C1.13056 0.391518 1.28013 0 1.59687 0H23.4075C23.7243 0 23.8738 0.387119 23.6407 0.602674L13.7339 9.55041V9.54601Z" fill="#948438"/>
<path d="M17.3412 9.1457L23.324 15.8763C23.7287 16.3338 23.4075 17.0553 22.7917 17.0553H2.20835C1.59688 17.0553 1.27135 16.3338 1.67606 15.8763L7.65882 9.1501C7.91836 8.85536 8.37147 8.82896 8.66181 9.09291L10.6942 10.9229C11.7412 11.8423 13.3072 11.8291 14.3366 10.8921L16.3294 9.08851C16.6198 8.82456 17.0729 8.85096 17.3368 9.1457H17.3412Z" fill="#948438"/>
<path d="M24.063 15.0932L17.9219 8.18229C17.724 7.96233 17.746 7.6236 17.9615 7.42564L24.1026 1.874C24.4502 1.56166 25.0001 1.80801 25.0001 2.27432V14.7369C25.0001 15.2296 24.3886 15.4628 24.0586 15.0932H24.063Z" fill="#948438"/>
<path d="M7.13972 8.10761L0.774239 15.2825C0.505895 15.5861 0 15.3969 0 14.9878V2.05887C0 1.67615 0.453106 1.47379 0.739046 1.72894L7.10452 7.48294C7.28488 7.64571 7.29808 7.92285 7.13972 8.10321V8.10761Z" fill="#948438"/>
</svg>
