<svg width="40" height="40" viewBox="0 0 40 40" fill="none" xmlns="http://www.w3.org/2000/svg">
<path d="M21.9743 21.2736C20.8622 22.3083 19.187 22.3153 18.075 21.3088L2.18898 6.96428C1.8089 6.62643 2.04821 6 2.55499 6H37.452C37.9588 6 38.1981 6.61939 37.8251 6.96428L21.9743 21.2807V21.2736Z" fill="#6F632A"/>
<path d="M27.7459 20.6331L37.3183 31.4021C37.9659 32.1341 37.4521 33.2884 36.4667 33.2884H3.53336C2.55501 33.2884 2.03415 32.1341 2.6817 31.4021L12.2541 20.6402C12.6694 20.1686 13.3944 20.1263 13.8589 20.5487L17.1107 23.4767C18.7859 24.9477 21.2916 24.9266 22.9386 23.4274L26.1271 20.5416C26.5916 20.1193 27.3166 20.1615 27.7389 20.6331H27.7459Z" fill="#6F632A"/>
<path d="M38.5009 30.1492L28.6751 19.0917C28.3583 18.7397 28.3935 18.1978 28.7384 17.881L38.5642 8.9984C39.1203 8.49866 40.0001 8.89282 40.0001 9.63891V29.5791C40.0001 30.3674 39.0217 30.7404 38.4938 30.1492H38.5009Z" fill="#6F632A"/>
<path d="M11.4235 18.9722L1.23878 30.452C0.809432 30.9377 0 30.635 0 29.9805V9.29419C0 8.68184 0.724969 8.35807 1.18247 8.7663L11.3672 17.9727C11.6558 18.2331 11.6769 18.6766 11.4235 18.9651V18.9722Z" fill="#6F632A"/>
</svg>
