<svg width="9" height="11" viewBox="0 0 9 11" fill="none" xmlns="http://www.w3.org/2000/svg">
<path d="M6.37527 5.25674C6.24598 4.39889 5.90704 3.99879 5.6205 3.79262C5.24836 3.52356 4.88146 3.52182 4.47437 3.09027C4.23152 2.83344 4.22103 2.68493 4.03584 2.41587C3.86986 2.17302 3.40512 1.58772 2.61715 1.39728C2.41972 1.35011 1.97944 1.24877 1.485 1.44096C1.40113 1.47241 0.903195 1.67333 0.639375 2.17302C0.345854 2.72861 0.490867 3.37506 0.518822 3.49386C0.567742 3.69653 0.655099 3.90968 0.609674 4.22592C0.583466 4.40762 0.531052 4.5107 0.48912 4.62776C0.331877 5.06979 0.420981 5.4926 0.473396 5.74769C0.649858 6.58981 1.2998 7.12444 1.485 7.26946" stroke="#B8A547" stroke-width="0.524145" stroke-miterlimit="10" stroke-linecap="round"/>
<path d="M1.71884 1.65769C1.66119 1.46201 1.46376 0.894187 0.897682 0.525539C0.661816 0.371789 0.43294 0.298409 0.261719 0.261719" stroke="#B8A547" stroke-width="0.524145" stroke-miterlimit="10" stroke-linecap="round"/>
<path d="M0.164123 8.32826C0.0907425 8.81921 2.03532 9.78888 4.00087 9.69628C4.5023 9.67182 5.35316 9.62116 6.23198 9.07255C7.45673 8.30555 8.01931 7.01266 8.13463 5.98009C8.21325 5.28473 8.12589 4.3797 7.83761 4.31506C7.53361 4.24692 7.30124 5.1764 6.38049 6.02552C6.14986 6.23867 5.6991 6.60732 4.47784 7.09652C1.82217 8.15704 0.230515 7.89672 0.16587 8.33001L0.164123 8.32826Z" fill="#B8A547"/>
<path d="M5.02823 10.6612C4.90593 11.1661 7.76252 9.63209 7.63848 9.28965C7.57034 9.10271 6.75966 9.25471 6.56747 9.28965C6.09749 9.37701 5.783 9.35605 5.38465 9.84699C5.2012 10.0759 5.14355 10.1824 5.02823 10.6612Z" fill="#B8A547"/>
<path d="M4.41721 5.48026C4.5835 5.38425 4.55678 5.02664 4.35752 4.68151C4.15827 4.33639 3.86193 4.13445 3.69563 4.23046C3.52934 4.32647 3.55606 4.68407 3.75532 5.0292C3.95457 5.37432 4.25091 5.57627 4.41721 5.48026Z" fill="#B8A547"/>
<path d="M2.98404 6.08353C3.16812 6.02887 3.22938 5.68836 3.12087 5.32298C3.01237 4.95761 2.77518 4.70573 2.59111 4.76039C2.40703 4.81506 2.34577 5.15557 2.45428 5.52094C2.56279 5.88632 2.79997 6.1382 2.98404 6.08353Z" fill="#B8A547"/>
</svg>
