<svg width="12" height="12" viewBox="0 0 12 12" fill="none" xmlns="http://www.w3.org/2000/svg">
<path d="M8.56473 5.51943C8.43544 4.66158 8.09649 4.26148 7.80996 4.05532C7.43781 3.78626 7.07091 3.78451 6.66382 3.35296C6.42097 3.09613 6.41049 2.94763 6.22529 2.67856C6.05931 2.43571 5.59457 1.85041 4.8066 1.65998C4.60918 1.6128 4.16889 1.51147 3.67445 1.70365C3.59059 1.7351 3.09265 1.93603 2.82883 2.43571C2.53531 2.9913 2.68032 3.63775 2.70827 3.75656C2.7572 3.95923 2.84455 4.17238 2.79913 4.48861C2.77292 4.67032 2.7205 4.7734 2.67857 4.89046C2.52133 5.33249 2.61043 5.7553 2.66285 6.01038C2.83931 6.85251 3.48925 7.38714 3.67445 7.53215" stroke="#4A421C" stroke-width="0.524145" stroke-miterlimit="10" stroke-linecap="round"/>
<path d="M3.9083 1.92039C3.85064 1.72471 3.65321 1.15688 3.08713 0.788234C2.85127 0.634485 2.62239 0.561104 2.45117 0.524414" stroke="#4A421C" stroke-width="0.524145" stroke-miterlimit="10" stroke-linecap="round"/>
<path d="M2.35358 8.59096C2.2802 9.08191 4.22477 10.0516 6.19032 9.95898C6.69175 9.93452 7.54261 9.88385 8.42143 9.33525C9.64618 8.56825 10.2088 7.27535 10.3241 6.24279C10.4027 5.54742 10.3153 4.6424 10.0271 4.57775C9.72306 4.50961 9.49069 5.4391 8.56994 6.28821C8.33932 6.50137 7.88855 6.87002 6.66729 7.35922C4.01162 8.41974 2.41997 8.15941 2.35532 8.59271L2.35358 8.59096Z" fill="#4A421C"/>
<path d="M7.21769 10.9239C7.09539 11.4288 9.95198 9.89479 9.82793 9.55235C9.75979 9.3654 8.94911 9.51741 8.75693 9.55235C8.28694 9.63971 7.97246 9.61874 7.5741 10.1097C7.39065 10.3386 7.333 10.4451 7.21769 10.9239Z" fill="#4A421C"/>
<path d="M6.60666 5.74295C6.77295 5.64694 6.74623 5.28933 6.54698 4.94421C6.34772 4.59909 6.05138 4.39714 5.88509 4.49315C5.71879 4.58916 5.74551 4.94677 5.94477 5.29189C6.14403 5.63702 6.44037 5.83896 6.60666 5.74295Z" fill="#4A421C"/>
<path d="M5.1735 6.34623C5.35757 6.29156 5.41883 5.95105 5.31033 5.58568C5.20182 5.2203 4.96464 4.96843 4.78056 5.02309C4.59649 5.07776 4.53523 5.41826 4.64373 5.78364C4.75224 6.14901 4.98942 6.40089 5.1735 6.34623Z" fill="#4A421C"/>
</svg>
