<svg width="58" height="53" viewBox="0 0 58 53" fill="none" xmlns="http://www.w3.org/2000/svg">
<g clip-path="url(#clip0_499_1994)">
<path d="M2.02 32.1401C2.01 32.3701 2 32.6101 2 32.8501C2 42.6901 14.01 50.6601 28.82 50.6601C43.63 50.6601 55.64 42.6801 55.64 32.8501C55.64 32.6101 55.64 32.3801 55.62 32.1401" fill="#383838"/>
<path d="M2.02 32.1401C2.01 32.3701 2 32.6101 2 32.8501C2 42.6901 14.01 50.6601 28.82 50.6601C43.63 50.6601 55.64 42.6801 55.64 32.8501C55.64 32.6101 55.64 32.3801 55.62 32.1401" stroke="#383838" stroke-width="4" stroke-miterlimit="10" stroke-linecap="round"/>
<path d="M18.9898 31.1899C18.9498 30.7499 18.7798 28.0599 18.8098 27.6099C8.95983 28.5299 2.00983 30.5499 2.02983 32.8999C2.05983 35.9799 14.0698 38.3599 28.8498 38.2099C43.6298 38.0599 55.5898 35.4399 55.5598 32.3599C55.5298 29.7899 47.9598 27.7199 36.6098 27.1899C36.6498 27.6499 36.4198 31.2099 36.3798 31.6299" fill="white"/>
<path d="M18.9898 31.1899C18.9498 30.7499 18.7798 28.0599 18.8098 27.6099C8.95983 28.5299 2.00983 30.5499 2.02983 32.8999C2.05983 35.9799 14.0698 38.3599 28.8498 38.2099C43.6298 38.0599 55.5898 35.4399 55.5598 32.3599C55.5298 29.7899 47.9598 27.7199 36.6098 27.1899C36.6498 27.6499 36.4198 31.2099 36.3798 31.6299" stroke="#383838" stroke-width="4" stroke-miterlimit="10"/>
<path d="M41.29 27.1699C40.91 25.4299 40.28 24.1799 40.03 23.7199C39.38 22.5199 38.99 22.2899 38.38 21.3099C37.25 19.5099 36.98 17.7899 36.65 15.6699C36.21 12.8199 36.67 12.2899 35.93 10.5699C35.66 9.93986 35.13 8.73986 33.92 7.61986C32.35 6.16986 30.46 5.60986 29.61 5.60986C29.6 5.60986 29.59 5.60986 28.5 5.60986C27.41 5.60986 27.43 5.60986 27.42 5.60986C26.54 5.60986 24.89 6.21986 23.5 7.32986C22.93 7.78986 21.73 8.87986 20.98 10.6699C20.51 11.7999 20.65 12.1699 20.34 15.6699C19.94 20.1099 19.6 20.8599 19.29 21.3899C18.68 22.4199 18.26 22.4999 17.49 23.9099C17.34 24.1799 16.7 25.3799 16.3 27.1099C15.83 29.1299 15.92 30.9299 16.11 32.2499C16.13 32.4199 16.29 32.4999 16.45 32.5399C20.13 33.3699 24.68 33.2699 28.52 33.2699C32.88 33.2699 36.11 33.3399 41.07 32.5399C41.17 32.5199 41.37 32.4399 41.4 32.2599C41.6 31.0099 41.72 29.2299 41.28 27.1799L41.29 27.1699Z" fill="#CDE01F" stroke="#CDE01F" stroke-width="3" stroke-miterlimit="10"/>
<path d="M23.4699 26.1702C24.221 26.1702 24.8299 25.5613 24.8299 24.8102C24.8299 24.0591 24.221 23.4502 23.4699 23.4502C22.7188 23.4502 22.1099 24.0591 22.1099 24.8102C22.1099 25.5613 22.7188 26.1702 23.4699 26.1702Z" fill="#383838"/>
<path d="M34.0602 26.0799C34.8113 26.0799 35.4202 25.471 35.4202 24.7199C35.4202 23.9688 34.8113 23.3599 34.0602 23.3599C33.3091 23.3599 32.7002 23.9688 32.7002 24.7199C32.7002 25.471 33.3091 26.0799 34.0602 26.0799Z" fill="#383838"/>
<path d="M28.1001 6.60005C28.2601 4.30005 29.6901 2.38005 31.8201 1.73005C32.7801 1.44005 33.7101 1.46005 34.4301 1.56005" stroke="#383838" stroke-width="3" stroke-miterlimit="10" stroke-linecap="round"/>
<path d="M30.9399 26.29C30.9399 27.31 30.0399 28.14 28.9399 28.14C27.8399 28.14 26.9399 27.31 26.9399 26.29" stroke="#383838" stroke-miterlimit="10" stroke-linecap="round"/>
</g>
<defs>
<clipPath id="clip0_499_1994">
<rect width="57.63" height="52.66" fill="white"/>
</clipPath>
</defs>
</svg>
