<svg width="29" height="29" viewBox="0 0 29 29" fill="none" xmlns="http://www.w3.org/2000/svg">
<path d="M23.0184 25.1194L17.6794 19.7765C17.3745 19.4717 16.8982 19.4221 16.54 19.6546C12.489 22.2993 7.12334 21.8878 3.51446 18.6219C-1.27959 14.2813 -1.16527 6.69007 3.83457 2.49431C8.0227 -1.0231 14.1582 -0.771588 18.0643 2.94018C21.8142 6.50333 22.4658 12.2387 19.6611 16.5335C19.4248 16.8955 19.4743 17.3719 19.7792 17.6768L25.122 23.0158C25.4802 23.374 25.4802 23.9532 25.122 24.3115L24.3141 25.1194C23.9559 25.4776 23.3766 25.4776 23.0184 25.1194ZM18.1939 10.6953C18.1939 6.55669 14.8365 3.19932 10.6979 3.19932C6.55934 3.19932 3.20197 6.55288 3.20197 10.6953C3.20197 14.8377 6.55934 18.1912 10.6979 18.1912C14.8365 18.1912 18.1939 14.8339 18.1939 10.6953Z" fill="#948438"/>
<path d="M28.1478 28.6177C27.7363 29.0788 27.0312 29.1284 26.5968 28.6939L25.526 27.6269C25.4574 27.5583 25.4574 27.4478 25.526 27.3792L27.378 25.5271C27.4466 25.4585 27.5571 25.4585 27.6219 25.5271L28.6242 26.5179C29.0891 26.9791 29.1272 27.6841 28.6242 28.1414L28.1478 28.6177Z" fill="#948438"/>
<path d="M26.0912 24.2384L24.2423 26.0866C24.1709 26.1581 24.1708 26.2739 24.2423 26.3453L24.8242 26.9275C24.8956 26.9989 25.0115 26.999 25.0829 26.9275L26.9318 25.0793C27.0032 25.0079 27.0032 24.8921 26.9318 24.8206L26.3499 24.2385C26.2785 24.167 26.1626 24.167 26.0912 24.2384Z" fill="#948438"/>
</svg>
