<svg width="40" height="40" viewBox="0 0 40 40" fill="none" xmlns="http://www.w3.org/2000/svg">
<path d="M31.7634 34.6554L24.3961 27.2843C23.9754 26.8637 23.318 26.7953 22.8237 27.116C17.2338 30.7648 9.8296 30.197 4.84966 25.6912C-1.76573 19.7029 -1.60797 9.22981 5.29138 3.44123C11.0706 -1.4115 19.5371 -1.0645 24.9272 4.05636C30.1017 8.97218 31.0009 16.8848 27.1306 22.8101C26.8045 23.3096 26.8729 23.9668 27.2936 24.3874L34.6662 31.7532C35.1605 32.2474 35.1605 33.0466 34.6662 33.5408L33.5514 34.6554C33.0571 35.1496 32.2578 35.1496 31.7634 34.6554ZM25.106 14.7555C25.106 9.04579 20.4731 4.41388 14.7622 4.41388C9.05132 4.41388 4.41845 9.04053 4.41845 14.7555C4.41845 20.4705 9.05132 25.0971 14.7622 25.0971C20.4731 25.0971 25.106 20.4652 25.106 14.7555Z" fill="#6F632A"/>
<path d="M38.8416 39.4818C38.2737 40.118 37.3008 40.1863 36.7013 39.587L35.2236 38.1149C35.129 38.0202 35.129 37.8678 35.2236 37.7731L37.7793 35.2179C37.874 35.1233 38.0265 35.1233 38.1159 35.2179L39.4989 36.5849C40.1405 37.2211 40.1931 38.1937 39.4989 38.8246L38.8416 39.4818Z" fill="#6F632A"/>
<path d="M36.0036 33.44L33.4523 35.9899C33.3537 36.0884 33.3537 36.2482 33.4522 36.3468L34.2553 37.1499C34.3538 37.2485 34.5137 37.2485 34.6123 37.15L37.1635 34.6001C37.2621 34.5016 37.2622 34.3418 37.1636 34.2432L36.3606 33.4401C36.262 33.3415 36.1022 33.3415 36.0036 33.44Z" fill="#6F632A"/>
</svg>
