<svg width="50" height="49" viewBox="0 0 50 49" fill="none" xmlns="http://www.w3.org/2000/svg">
<path d="M16.0745 31.1714C15.9884 30.7575 15.5048 28.2189 15.4807 27.7936C6.80282 29.9408 0.838782 32.7548 1.14401 34.9858C1.54443 37.9142 12.5493 38.6278 25.7239 36.5821C38.8986 34.5348 49.2552 30.503 48.8548 27.5746C48.5209 25.1326 42.5112 24.1355 32.3148 25.0907C32.4024 25.5289 32.6336 28.9357 32.6427 29.348" stroke="#D5C990" stroke-width="2.44787" stroke-miterlimit="10"/>
<path d="M21.2317 6.60876C21.0942 4.39716 22.1459 2.39012 23.9637 1.50097C24.7827 1.1015 25.6137 0.998408 26.2695 1.00002" stroke="#D5C990" stroke-width="2.12149" stroke-miterlimit="10" stroke-linecap="round"/>
<path fill-rule="evenodd" clip-rule="evenodd" d="M22.4568 5.45841C23.2214 5.35372 24.9757 5.64051 26.5502 6.81798C27.765 7.72485 28.3861 8.80083 28.7034 9.36299C29.5752 10.9061 29.2247 11.4682 29.9621 14.126C30.5106 16.104 30.9549 17.7084 32.1833 19.2724C32.8497 20.1213 33.2213 20.2905 33.9497 21.3504C34.2262 21.7547 34.9425 22.8645 35.488 24.4721L35.4849 24.4752C36.1271 26.3663 36.2359 28.0802 36.2057 29.2931C36.2012 29.4639 36.0349 29.5687 35.9457 29.5977C31.6182 30.9958 28.7291 31.3485 24.8367 31.9091C21.4036 32.4036 17.3525 33.0802 13.9723 32.766C13.8197 32.7515 13.6746 32.6903 13.6323 32.5325C13.2999 31.3034 13.0099 29.6024 13.1821 27.6211C13.3287 25.9266 13.7548 24.704 13.8546 24.4254C14.3698 22.9854 14.7339 22.8613 15.154 21.7998C15.3671 21.2634 15.5877 20.5047 15.4034 16.2264C15.2598 12.8648 15.089 12.5233 15.37 11.3909C15.8158 9.59332 16.7572 8.39976 17.212 7.88591C18.3151 6.64239 19.7128 5.8595 20.5 5.7403C20.5106 5.73869 20.5182 5.73863 21.4625 5.60172C22.4402 5.45997 22.4462 5.45841 22.4568 5.45841ZM26.7424 24.8814C26.6974 24.5288 26.3929 24.2818 26.0622 24.3297C25.7315 24.3777 25.4997 24.7025 25.5447 25.0551C25.6174 25.6254 25.2013 26.2443 24.498 26.3465C23.797 26.4483 23.2411 25.9692 23.1691 25.3978C23.1246 25.0452 22.8204 24.7977 22.4896 24.8451C22.1588 24.8925 21.9265 25.2168 21.9709 25.5694C22.1437 26.9406 23.3889 27.8081 24.6612 27.6233C25.9313 27.4388 26.9175 26.2536 26.7424 24.8814ZM20.5196 24.3464C20.429 23.6296 19.8095 23.1271 19.1371 23.2237C18.4647 23.3204 17.9932 23.9809 18.0838 24.6977C18.1745 25.4144 18.7941 25.917 19.4665 25.8203C20.1389 25.7237 20.6103 25.0632 20.5196 24.3464ZM29.9848 22.8855C29.8806 22.1623 29.2474 21.6661 28.569 21.7772C27.8905 21.8883 27.4252 22.5633 27.5294 23.2865C27.6337 24.0097 28.2667 24.5058 28.9451 24.3947C29.6235 24.2836 30.089 23.6087 29.9848 22.8855Z" fill="#D5C990"/>
<path d="M49.2048 27.7814C49.1776 27.5559 49.1414 27.3336 49.1021 27.1113L48.7047 27.1661C48.7168 27.2257 48.7258 27.2869 48.7349 27.3481C49.1217 30.2781 38.6548 34.2696 25.3563 36.2638C14.1958 37.9374 4.59016 37.67 1.56055 35.8096C3.62461 44.3854 14.7654 49.8073 27.3297 48.0628C40.5557 46.2265 50.3502 37.1465 49.2064 27.7798L49.2048 27.7814Z" fill="#D5C990" stroke="#D5C990" stroke-width="1.14234" stroke-miterlimit="10" stroke-linecap="round"/>
</svg>
