<svg width="50" height="50" viewBox="0 0 50 50" fill="none" xmlns="http://www.w3.org/2000/svg">
<path d="M17.8596 29.9364C17.7907 29.6052 17.4039 27.5743 17.3845 27.2341C10.4423 28.9519 5.67103 31.2031 5.91521 32.9878C6.23555 35.3306 15.0394 35.9014 25.5792 34.2649C36.1189 32.627 44.4042 29.4016 44.0838 27.0589C43.8167 25.1053 39.009 24.3077 30.8518 25.0718C30.9219 25.4223 31.1069 28.1478 31.1141 28.4777" stroke="#948438" stroke-width="2.44787" stroke-miterlimit="10"/>
<path d="M21.9852 10.2868C21.8752 8.51753 22.7165 6.9119 24.1707 6.20058C24.8259 5.881 25.4908 5.79853 26.0154 5.79982" stroke="#948438" stroke-width="2.12149" stroke-miterlimit="10" stroke-linecap="round"/>
<path fill-rule="evenodd" clip-rule="evenodd" d="M22.9656 9.36653C23.5773 9.28278 24.9808 9.51221 26.2403 10.4542C27.2122 11.1797 27.7091 12.0405 27.9629 12.4902C28.6604 13.7247 28.38 14.1744 28.9699 16.3006C29.4087 17.883 29.7641 19.1665 30.7469 20.4178C31.28 21.0969 31.5773 21.2322 32.1599 22.0801C32.3811 22.4036 32.9542 23.2914 33.3906 24.5775L33.3881 24.58C33.9018 26.0928 33.9889 27.464 33.9648 28.4343C33.9611 28.5709 33.8281 28.6547 33.7568 28.6779C30.2947 29.7964 27.9835 30.0786 24.8695 30.5271C22.1231 30.9227 18.8822 31.4639 16.1781 31.2126C16.056 31.201 15.9399 31.152 15.9061 31.0258C15.6401 30.0425 15.4081 28.6817 15.5459 27.0967C15.6632 25.7411 16.0041 24.763 16.0839 24.5401C16.4961 23.3881 16.7873 23.2888 17.1234 22.4397C17.2938 22.0106 17.4704 21.4035 17.3229 17.9809C17.2081 15.2916 17.0714 15.0184 17.2962 14.1126C17.6528 12.6745 18.406 11.7196 18.7698 11.3085C19.6523 10.3137 20.7704 9.68741 21.4002 9.59204C21.4087 9.59076 21.4147 9.59071 22.1702 9.48118C22.9523 9.36778 22.9572 9.36653 22.9656 9.36653ZM26.3942 24.9049C26.3582 24.6229 26.1145 24.4253 25.8499 24.4636C25.5854 24.502 25.4 24.7618 25.4359 25.0439C25.4942 25.5002 25.1613 25.9953 24.5986 26.077C24.0378 26.1585 23.5931 25.7752 23.5355 25.3181C23.4999 25.036 23.2565 24.838 22.9919 24.8759C22.7272 24.9138 22.5414 25.1732 22.5769 25.4554C22.7151 26.5523 23.7114 27.2463 24.7292 27.0985C25.7453 26.9509 26.5342 26.0027 26.3942 24.9049ZM21.4159 24.4769C21.3434 23.9035 20.8478 23.5015 20.3099 23.5788C19.772 23.6561 19.3947 24.1845 19.4673 24.7579C19.5398 25.3313 20.0355 25.7334 20.5734 25.6561C21.1113 25.5788 21.4884 25.0504 21.4159 24.4769ZM28.988 23.3082C28.9046 22.7297 28.3981 22.3327 27.8554 22.4215C27.3126 22.5105 26.9403 23.0504 27.0237 23.629C27.1071 24.2076 27.6135 24.6045 28.1563 24.5156C28.699 24.4267 29.0714 23.8868 28.988 23.3082Z" fill="#948438"/>
<path d="M44.3645 27.2245C44.3427 27.0441 44.3137 26.8663 44.2823 26.6885L43.9643 26.7323C43.974 26.78 43.9813 26.8289 43.9885 26.8779C44.298 29.2219 35.9244 32.4151 25.2856 34.0104C16.3572 35.3493 8.67272 35.1354 6.24902 33.6471C7.90028 40.5077 16.8129 44.8452 26.8643 43.4496C37.4451 41.9806 45.2807 34.7166 44.3657 27.2233L44.3645 27.2245Z" fill="#948438" stroke="#948438" stroke-width="1.14234" stroke-miterlimit="10" stroke-linecap="round"/>
</svg>
