<svg width="283" height="285" viewBox="0 0 283 285" fill="none" xmlns="http://www.w3.org/2000/svg">
<path d="M155.169 215.748C156.163 205.184 154.814 196.936 154.225 193.878C152.676 185.871 150.895 183.871 149.16 177.219C145.953 164.969 147.545 154.704 149.494 142.049C152.12 125.041 155.713 122.88 154.579 111.747C154.169 107.699 153.299 99.9001 148.436 91.3779C142.132 80.3217 132.391 73.7542 127.536 72.1908C127.469 72.1703 127.43 72.1586 121.205 70.1852C115.188 68.2859 115.14 68.2712 115.073 68.2507C110.048 66.6977 99.6071 67.1439 89.7072 71.0092C85.6205 72.6001 76.8324 76.6602 69.3952 85.4865C64.7173 91.0487 64.8285 93.4469 56.7847 112.736C46.5514 137.284 43.219 140.916 40.5342 143.324C35.2109 148.092 32.6948 147.769 25.7964 154.397C24.4607 155.682 18.6748 161.343 13.3068 170.449C7.02955 181.085 4.25398 191.457 2.99635 199.304C2.83383 200.31 3.54457 201.062 4.42351 201.572C23.8219 212.871 49.8641 220.519 71.7166 227.436C96.4981 235.272 114.724 241.462 144.338 245.824C144.938 245.914 146.219 245.794 146.699 244.843C150.091 238.123 153.977 228.186 155.147 215.752L155.169 215.748Z" stroke="#C7B76B" stroke-width="7" stroke-miterlimit="10"/>
<path d="M13.345 174.415C-44.2795 161.969 -75.4695 164.038 -79.5487 177.431C-84.9102 195.001 -20.9294 230.088 63.3463 255.798C147.622 281.508 220.296 288.102 225.657 270.532C230.124 255.878 216.41 241.804 152.844 218.382" stroke="#C7B76B" stroke-width="15" stroke-miterlimit="10"/>
<path d="M156.126 216.041C157.12 205.477 155.771 197.229 155.182 194.171C153.633 186.164 151.852 184.164 150.117 177.512C146.91 165.262 148.502 154.997 150.451 142.342C153.077 125.334 156.67 123.173 155.536 112.04C155.126 107.992 154.256 100.193 149.393 91.6709C143.089 80.6147 133.348 74.0472 128.493 72.4838C128.426 72.4633 128.387 72.4515 122.162 70.4781C116.145 68.5789 116.097 68.5642 116.03 68.5436C111.005 66.9907 100.564 67.4369 90.6643 71.3022C86.5776 72.8931 77.7894 76.9532 70.3523 85.7795C65.6743 91.3417 65.7855 93.7399 57.7417 113.029C47.5084 137.577 44.176 141.209 41.4912 143.617C36.1679 148.385 33.6518 148.062 26.7535 154.69C25.4177 155.974 19.6319 161.636 14.2638 170.742C7.98658 181.378 5.21101 191.75 3.95338 199.596C3.79086 200.603 4.5016 201.355 5.38054 201.865C24.779 213.164 50.8212 220.812 72.6736 227.729C97.4551 235.565 115.681 241.755 145.295 246.117C145.895 246.207 147.176 246.087 147.656 245.136C151.048 238.416 154.934 228.479 156.104 216.045L156.126 216.041Z" stroke="#C7B76B" stroke-width="7" stroke-miterlimit="10"/>
<path d="M56.7257 178.399C61.0182 179.716 65.5659 177.304 66.8834 173.012C68.2009 168.719 65.7892 164.172 61.4968 162.854C57.2043 161.537 52.6566 163.948 51.3391 168.241C50.0216 172.533 52.4333 177.081 56.7257 178.399Z" fill="#C7B76B"/>
<path d="M117.075 196.932C121.368 198.249 125.916 195.838 127.233 191.545C128.55 187.253 126.139 182.705 121.846 181.387C117.554 180.07 113.006 182.482 111.689 186.774C110.371 191.067 112.783 195.614 117.075 196.932Z" fill="#C7B76B"/>
<path d="M118.122 75.4937C123.161 62.6886 134.767 54.3888 147.999 54.5273C153.96 54.5996 159.203 56.3657 163.129 58.2296" stroke="#C7B76B" stroke-width="13" stroke-miterlimit="10" stroke-linecap="round"/>
<path d="M98.8899 192.448C97.0581 198.246 90.4705 201.339 84.1853 199.358C77.9029 197.367 74.2945 191.06 76.1292 185.253" stroke="#C7B76B" stroke-width="8" stroke-miterlimit="10" stroke-linecap="round"/>
<path d="M227.421 274.127C227.844 272.782 228.217 271.432 228.561 270.073L226.033 269.277C225.941 269.646 225.848 270.015 225.737 270.378C220.375 287.948 147.118 281.175 62.1065 255.239C-9.22892 233.48 -66.1616 205.148 -79.4704 186.209C-89.5575 240.238 -36.9357 301.871 43.0123 327.163C127.177 353.78 209.737 330.04 227.418 274.137L227.421 274.127Z" fill="#C7B76B" stroke="#C7B76B" stroke-width="7" stroke-miterlimit="10" stroke-linecap="round"/>
</svg>
